<?xml version="1.0" encoding="utf-8"?>
<!-- Generator: Adobe Illustrator 27.4.1, SVG Export Plug-In . SVG Version: 6.00 Build 0)  -->
<svg version="1.1" id="Layer_1" xmlns="http://www.w3.org/2000/svg" xmlns:xlink="http://www.w3.org/1999/xlink" x="0px" y="0px"
	 viewBox="0 0 17.9 24" style="enable-background:new 0 0 17.9 24;" xml:space="preserve">
<path style="fill:#CBAD6D;" d="M8.4,23.6c0.1,0.1,0.2,0.2,0.4,0.3c0,0,0,0,0,0C8.9,23.9,8.9,24,9,24s0.2,0,0.2-0.1c0,0,0,0,0,0
	c0.1-0.1,0.2-0.2,0.4-0.3c0,0,7-7.6,7.7-14.2c0-0.3,0.1-0.7,0.1-1C17.4,3.8,13.6,0,9,0S0.5,3.8,0.5,8.4c0,0.4,0,0.7,0.1,1
	C1.3,16,8.4,23.6,8.4,23.6L8.4,23.6z M9,3c3,0,5.4,2.4,5.4,5.4s-2.4,5.4-5.4,5.4s-5.4-2.4-5.4-5.4S6,3,9,3z"/>
</svg>
