<?xml version="1.0" encoding="UTF-8"?>
<svg id="Layer_1" xmlns="http://www.w3.org/2000/svg" xmlns:xlink="http://www.w3.org/1999/xlink" version="1.1" viewBox="0 0 176.3 213.3">
  <!-- Generator: Adobe Illustrator 30.1.0, SVG Export Plug-In . SVG Version: 2.1.1 Build 136)  -->
  <defs>
    <radialGradient id="radial-gradient" cx="83.6" cy="115.7" fx="83.6" fy="115.7" r="127.3" gradientUnits="userSpaceOnUse">
      <stop offset="0" stop-color="#fff" stop-opacity="0"/>
      <stop offset="1" stop-color="#121212" stop-opacity=".9"/>
      <stop offset="1" stop-color="#000"/>
    </radialGradient>
    <linearGradient id="linear-gradient" x1="30.9" y1="-434.2" x2="258.7" y2="-582.8" gradientTransform="translate(0 -420) scale(1 -1)" gradientUnits="userSpaceOnUse">
      <stop offset="0" stop-color="#b0803e"/>
      <stop offset=".3" stop-color="#e7d086"/>
      <stop offset=".8" stop-color="#916a2d"/>
      <stop offset="1" stop-color="#bb782a"/>
    </linearGradient>
    <linearGradient id="linear-gradient1" x1="48.7" y1="-488.8" x2="131.9" y2="-632.4" gradientTransform="translate(0 -420) scale(1 -1)" gradientUnits="userSpaceOnUse">
      <stop offset="0" stop-color="#b0803e"/>
      <stop offset=".3" stop-color="#e7d086"/>
      <stop offset=".8" stop-color="#916a2d"/>
      <stop offset="1" stop-color="#bb782a"/>
    </linearGradient>
    <linearGradient id="linear-gradient2" x1="30.7" y1="-508.8" x2="68.9" y2="-742.3" gradientTransform="translate(0 -420) scale(1 -1)" gradientUnits="userSpaceOnUse">
      <stop offset="0" stop-color="#b0803e"/>
      <stop offset=".3" stop-color="#e7d086"/>
      <stop offset=".8" stop-color="#916a2d"/>
      <stop offset="1" stop-color="#bb782a"/>
    </linearGradient>
    <linearGradient id="linear-gradient3" x1="97.8" y1="-486.6" x2="166" y2="-612.8" gradientTransform="translate(0 -420) scale(1 -1)" gradientUnits="userSpaceOnUse">
      <stop offset="0" stop-color="#b0803e"/>
      <stop offset=".3" stop-color="#e7d086"/>
      <stop offset=".8" stop-color="#916a2d"/>
      <stop offset="1" stop-color="#bb782a"/>
    </linearGradient>
  </defs>
  <rect x="4.9" y="4.9" width="166.8" height="203.3" style="fill: url(#radial-gradient); opacity: .4;"/>
  <path d="M176.6,213.1H0V0h176.6v213.1ZM4.9,208.2h166.8V4.9H4.9v203.3Z" style="fill: #fff;"/>
  <polygon points="155.7 20.1 152.1 8.8 148.4 20.1 136.7 20.1 146.2 27 142.5 38.2 152.1 31.3 161.4 38.2 158 27 167.3 20.1 155.7 20.1" style="fill: #e7d086;"/>
  <path d="M22.8,47.7c0-20,15.2-34.3,34.3-34.3s20.8,4.4,26.7,13.9l-10.5,7.6c-3-5.1-8.5-8.8-16.2-8.8-12.2,0-20.3,9.3-20.3,21.8s8.1,22.2,20.3,22.2,13.4-4.2,17.3-10l10.7,7.4c-5.9,9-15.1,14.9-27.9,14.9-19.1,0-34.3-14.5-34.3-34.3h0v-.3ZM116.8,13.2h1.4l30.6,68h-14.5l-3-7.6h-27.1l-3,7.6h-13.2L117.2,13.2h-.3ZM126.1,62l-4.7-11.7c-2-4.7-4.1-12.2-4.1-12.2,0,0-2,7.4-3.9,12.2l-4.7,11.7h17.4Z" style="fill: url(#linear-gradient);"/>
  <path d="M85,106.2h-27.4v-12.3h47.4v1.4l-28.9,66.6h-15.2l24.4-55.6h-.2Z" style="fill: url(#linear-gradient1);"/>
  <polygon points="30.4 106.2 19.6 106.2 19.6 93.8 45.5 93.8 45.5 151.5 30.4 151.5 30.4 106.2" style="fill: url(#linear-gradient2);"/>
  <path d="M105.2,148.3h0l12.9-6.4c1.7,4.2,4.7,7.9,11.3,7.9s10.1-4.4,10.1-10.1-3.9-10.3-11.3-10.3-11.2,2.7-14.5,5.4l-1.4-.5v-40.3h37.2v12.3h-25v12.2c1.5-.8,4.7-1.7,7.9-1.7,13.9,0,22.8,10.3,22.8,23s-8.3,23.2-25.5,23.2-21.3-7.1-24.5-14.5" style="fill: url(#linear-gradient3);"/>
  <path d="M157.1,197.3H17.3c1.1-1.3,1.9-2.4,2.7-3.7,1.8-2.4,3.7-4.6,5.4-7.2.8-1.1.8-1.9,0-2.9-2.7-3.5-5.4-7.2-8.1-10.7h139.7c.2.3-.2.5-.3.6-2.4,3.3-4.8,6.4-7.3,9.7-1.1,1.3-1.1,2.2,0,3.5,2.4,3.2,4.8,6.2,7.3,9.6,0,.2.5.5.3,1.1h0v-.2Z" style="fill: #214ca3;"/>
  <g>
    <rect x="81.7" y="177.2" width="2.5" height="12.9" style="fill: #fff;"/>
    <path d="M76.8,186.1c1.6-.6,2.4-1.9,2.4-4,0-3.2-2.1-4.8-5.7-4.8h-3.5v12.9h2.5v-3.2h1.6l2.1,3.3h2.9l-2.4-4.1.2-.2ZM73.4,184.7h-.8v-5.1h.8c2.1,0,3.2.6,3.2,2.5s-.8,2.4-3.2,2.4v.2Z" style="fill: #fff;"/>
    <path d="M49.8,184.2l-6.2-7h-.2v13.1h2.4v-4.8c0-.8-.2-2.2-.2-2.2,0,0,.6,1.3,1.4,1.8l2.5,2.7h.2l2.5-2.7c.5-.6,1.4-1.8,1.4-1.8,0,0-.2,1.4-.2,2.2v4.8h2.5v-13.1h-.2l-6.2,7Z" style="fill: #fff;"/>
    <path d="M35.7,177.2h0l-5.6,12.9h2.5l.5-1.4h5.3l.5,1.4h2.7l-6.1-12.9h.2ZM37.4,186.4h-3.3l.8-2.2c.3-.8.6-2.2.6-2.2,0,0,.3,1.4.6,2.2l1.1,2.2h.2Z" style="fill: #fff;"/>
    <polygon points="61.6 186 66.7 186 66.7 183.7 61.6 183.7 61.6 179.7 67.4 179.7 67.4 177.2 58.9 177.2 58.9 190.1 67.8 190.1 67.8 187.9 61.6 187.9 61.6 186" style="fill: #fff;"/>
    <path d="M139.1,180.2c-2.7,0-5.3,2.1-5.3,5.1s2.4,5.1,5.3,5.1,5.3-2.1,5.3-5.1-2.4-5.1-5.3-5.1ZM139.1,188c-1.4,0-2.4-1.1-2.4-2.7s1.1-2.7,2.4-2.7,2.5,1.1,2.5,2.7-1.1,2.7-2.5,2.7Z" style="fill: #fff;"/>
    <path d="M129,184.2c-.5,0-1.1.2-1.4.3v-2.1h4.3v-2.1h-6.4v7h.2c.5-.3,1.4-.6,2.4-.6s1.9.6,1.9,1.8-.5,1.8-1.8,1.8-1.8-.5-1.9-1.4l-2.2,1.1h0c.5,1.3,1.9,2.4,4.1,2.4s4.3-1.8,4.3-4c.2-2.2-1.4-4-3.7-4l.2-.2Z" style="fill: #fff;"/>
    <path d="M104.3,177.2h0l-5.6,12.9h2.5l.5-1.4h5.3l.5,1.4h2.7l-6.1-12.9h.2ZM106.2,186.4h-3.3l.8-2.2c.3-.8.6-2.2.6-2.2,0,0,.3,1.4.6,2.2l1.1,2.2h.2Z" style="fill: #fff;"/>
    <path d="M119.9,188s.6-.5,1.1-.8l.3-.3c1.3-1.3,1.9-2.4,1.9-3.7s-1.3-3.2-3.8-3.2-3.5,1.3-4,3.2l2.4.6c.3-.8.6-1.6,1.6-1.6s1.3.3,1.3,1.1-.5,1.3-1.6,2.4l-3.7,4h0c0,.2,8,.2,8,.2v-2.1h-2.2c-.3.2-1.3.2-1.3.2h0Z" style="fill: #fff;"/>
    <path d="M93,188c-2.2,0-3.8-1.9-3.8-4.1s1.6-4.1,3.8-4.1,2.4.6,3.2,1.8l2.1-1.4c-1.3-1.8-2.7-2.5-5.1-2.5-3.7,0-6.5,2.7-6.5,6.5h0c0,3.8,2.9,6.5,6.5,6.5s4.1-1.1,5.4-2.7l-2.1-1.4c-.8.6-1.9,1.6-3.5,1.6Z" style="fill: #fff;"/>
  </g>
</svg>